<?xml version="1.0" standalone="no"?>
<!DOCTYPE svg PUBLIC "-//W3C//DTD SVG 20010904//EN"
 "http://www.w3.org/TR/2001/REC-SVG-20010904/DTD/svg10.dtd">
<svg version="1.0" xmlns="http://www.w3.org/2000/svg"
 width="3346.000000pt" height="3555.000000pt" viewBox="0 0 3346.000000 3555.000000"
 preserveAspectRatio="xMidYMid meet">

<g transform="translate(0.000000,3555.000000) scale(0.100000,-0.100000)"
fill="#000000" stroke="none">
<path d="M10585 35164 c-3404 -426 -6374 -1109 -9036 -2077 -350 -128 -1173
-448 -1187 -462 -2 -2 123 -68 279 -146 1185 -592 2624 -1375 3734 -2033 94
-56 55 -63 355 62 1728 719 3715 1262 6028 1647 l32 6 0 1514 c0 833 -3 1514
-7 1514 -5 -1 -93 -12 -198 -25z"/>
<path d="M12705 31369 c-1835 -209 -3400 -510 -4908 -945 -379 -109 -927 -283
-927 -294 0 -3 53 -41 117 -85 670 -457 1517 -1088 2186 -1629 137 -111 255
-205 262 -211 10 -6 105 21 312 88 847 276 1791 501 2788 665 198 33 381 63
408 67 l47 6 0 1185 c0 1121 -1 1184 -17 1183 -10 -1 -130 -14 -268 -30z"/>
<path d="M14990 27879 c-390 -12 -987 -38 -1370 -59 -189 -11 -353 -20 -363
-20 -15 0 -18 -5 -13 -22 3 -13 117 -446 251 -963 135 -517 255 -975 267
-1019 l21 -78 81 6 c129 10 617 34 906 46 146 5 329 13 408 16 l142 6 0 1049
0 1049 -37 -2 c-21 0 -153 -5 -293 -9z"/>
<path d="M19695 24898 c-3 -7 -4 -1064 -3 -2348 l3 -2335 3520 -3 3519 -2 211
31 c1183 172 2156 539 2867 1081 923 703 1449 1697 1597 3013 23 204 45 550
36 565 -10 16 -11744 13 -11750 -2z"/>
<path d="M14809 24219 l39 -42 188 8 c163 6 190 10 208 26 25 24 31 24 56 -1
22 -22 25 -42 10 -71 -13 -23 -62 -26 -80 -4 -7 8 -17 15 -22 15 -12 0 16 -36
99 -124 38 -40 80 -87 95 -104 31 -37 50 -40 86 -12 14 12 35 20 46 19 24 -2
56 9 74 28 7 7 19 13 26 13 7 0 21 8 32 18 10 10 34 24 52 31 17 7 32 17 32
22 0 5 6 9 14 9 15 0 26 61 26 151 l0 59 -55 0 c-47 0 -55 -3 -55 -19 0 -10 7
-24 15 -31 24 -20 19 -67 -9 -85 -25 -17 -54 -11 -73 14 -10 14 -14 12 -32 -9
-11 -14 -20 -28 -21 -32 0 -9 -76 -10 -105 -2 -35 10 -75 73 -75 119 l0 42
-304 2 -305 2 38 -42z"/>
<path d="M15610 24235 c0 -18 4 -23 15 -19 8 4 15 15 15 25 0 10 -7 19 -15 19
-9 0 -15 -9 -15 -25z"/>
<path d="M15823 24225 c0 -22 2 -30 4 -17 2 12 2 30 0 40 -3 9 -5 -1 -4 -23z"/>
<path d="M15864 24208 c3 -29 6 -68 6 -86 0 -20 4 -31 10 -27 6 3 10 42 10 86
0 67 -3 79 -16 79 -14 0 -16 -8 -10 -52z"/>
<path d="M15930 24189 l0 -71 27 7 c29 7 45 23 37 37 -3 5 0 7 8 6 9 -2 14 11
16 45 l3 47 -45 0 -46 0 0 -71z"/>
<path d="M16060 24230 c0 -32 19 -80 32 -80 4 0 8 11 8 24 0 13 3 38 6 55 6
28 4 31 -20 31 -22 0 -26 -4 -26 -30z"/>
<path d="M16140 24216 c0 -39 2 -44 20 -39 16 4 20 14 20 44 0 32 -3 39 -20
39 -17 0 -20 -7 -20 -44z"/>
<path d="M16220 24216 c0 -41 1 -43 25 -38 18 3 24 9 20 21 -6 20 34 27 48 8
7 -9 10 -9 14 1 5 14 63 17 63 3 0 -14 29 -21 36 -9 4 7 3 8 -4 4 -7 -4 -12
-3 -12 2 0 6 7 12 15 16 10 3 17 -3 21 -19 4 -18 13 -25 30 -25 21 0 24 4 24
40 l0 40 -140 0 -140 0 0 -44z"/>
<path d="M16540 24214 c0 -28 4 -43 10 -39 12 8 10 85 -2 85 -4 0 -8 -21 -8
-46z"/>
<path d="M16595 24243 c2 -10 4 -30 4 -45 2 -47 21 -31 21 17 0 32 -4 45 -14
45 -8 0 -13 -8 -11 -17z"/>
<path d="M16659 24256 c-2 -2 -2 -27 -1 -55 3 -45 7 -52 28 -56 13 -3 35 -7
49 -10 38 -8 32 18 -17 76 -39 47 -49 54 -59 45z"/>
<path d="M16800 24225 c19 -19 35 -35 37 -35 2 0 3 16 3 35 0 34 -1 35 -37 35
l-37 0 34 -35z"/>
<path d="M16910 24196 c0 -70 6 -80 55 -82 17 -1 78 -5 138 -8 l107 -7 25 28
c23 27 25 27 52 13 15 -9 29 -26 31 -38 4 -28 -23 -72 -43 -72 -15 0 -21 -16
-7 -22 4 -1 25 -23 47 -48 21 -25 50 -47 64 -50 45 -9 56 -108 13 -111 -9 -1
1 -5 23 -10 22 -4 104 -8 182 -8 l141 -1 22 35 c12 19 31 42 43 50 24 17 99
20 127 5 34 -18 61 -76 62 -132 3 -243 1 -228 26 -228 19 0 21 3 12 19 -15 29
-13 126 4 140 17 15 46 4 46 -18 0 -11 10 -6 32 18 43 46 45 91 6 133 -22 24
-28 40 -28 75 0 46 20 98 42 106 7 3 -57 6 -144 6 l-156 1 -40 -48 c-32 -38
-40 -55 -39 -85 1 -41 -13 -57 -48 -57 -28 0 -45 19 -45 50 1 32 22 60 47 60
11 0 39 23 67 55 l47 55 -60 0 -59 0 -56 -64 c-46 -52 -56 -70 -56 -100 0 -45
-34 -67 -75 -48 -47 22 -25 102 28 102 14 0 32 8 39 19 7 10 35 42 62 72 l49
54 285 0 c219 0 286 3 289 13 3 8 -10 12 -44 12 -70 0 -91 26 -54 68 13 16 30
22 60 22 l41 0 0 45 0 45 -160 0 -160 0 0 -30 c0 -48 -20 -80 -49 -80 -34 0
-61 43 -54 83 l5 27 -123 0 -123 0 -36 -35 -35 -34 -130 -1 c-172 -2 -203 -7
-207 -34 -3 -20 -9 -21 -130 -24 l-128 -3 0 66 c0 51 -3 65 -15 65 -12 0 -15
-14 -15 -64z"/>
<path d="M17328 24253 c34 -2 88 -2 120 0 31 2 3 3 -63 3 -66 0 -92 -1 -57 -3z"/>
<path d="M17530 24245 c-9 -11 -46 -15 -169 -18 l-156 -3 158 -2 c146 -2 159
0 179 18 12 11 17 20 11 20 -6 0 -16 -7 -23 -15z"/>
<path d="M18290 24215 c0 -33 4 -45 15 -45 11 0 15 12 15 45 0 33 -4 45 -15
45 -11 0 -15 -12 -15 -45z"/>
<path d="M18330 24246 c0 -29 13 -76 21 -76 5 0 9 20 9 45 0 33 -4 45 -15 45
-8 0 -15 -6 -15 -14z"/>
<path d="M18380 24215 c0 -33 4 -45 15 -45 11 0 15 12 15 45 0 33 -4 45 -15
45 -11 0 -15 -12 -15 -45z"/>
<path d="M18422 24218 c2 -31 8 -44 21 -46 14 -3 17 4 17 42 0 40 -3 46 -21
46 -18 0 -20 -5 -17 -42z"/>
<path d="M18480 24216 c0 -43 1 -44 35 -48 l35 -4 0 48 0 48 -35 0 c-35 0 -35
0 -35 -44z"/>
<path d="M14654 24233 c62 -4 70 -7 94 -35 51 -60 46 -58 165 -56 l112 2 -96
3 -96 4 -38 44 -38 45 -86 -2 c-84 -2 -85 -2 -17 -5z"/>
<path d="M14590 24185 c0 -11 12 -15 45 -15 40 0 50 -5 101 -55 l57 -55 209 0
209 0 52 -53 c29 -29 67 -70 85 -92 17 -22 32 -37 32 -33 0 10 -94 123 -151
183 l-48 49 -198 4 -198 4 -37 39 c-35 37 -40 39 -98 39 -47 0 -60 -3 -60 -15z"/>
<path d="M15821 24164 c0 -11 3 -14 6 -6 3 7 2 16 -1 19 -3 4 -6 -2 -5 -13z"/>
<path d="M16240 24159 c0 -5 5 -7 10 -4 6 3 10 8 10 11 0 2 -4 4 -10 4 -5 0
-10 -5 -10 -11z"/>
<path d="M15043 24143 c9 -2 23 -2 30 0 6 3 -1 5 -18 5 -16 0 -22 -2 -12 -5z"/>
<path d="M16672 24108 c6 -18 28 -21 28 -4 0 9 -7 16 -16 16 -9 0 -14 -5 -12
-12z"/>
<path d="M17254 24099 c-10 -17 13 -36 27 -22 12 12 4 33 -11 33 -5 0 -12 -5
-16 -11z"/>
<path d="M15950 24090 c0 -5 5 -10 10 -10 6 0 10 5 10 10 0 6 -4 10 -10 10 -5
0 -10 -4 -10 -10z"/>
<path d="M18292 24057 c-28 -30 -28 -37 1 -37 13 0 36 14 52 30 l29 30 -30 0
c-19 0 -39 -9 -52 -23z"/>
<path d="M18367 24035 c-35 -41 -42 -45 -84 -45 -40 0 -44 -2 -29 -13 9 -7 22
-24 29 -37 9 -17 22 -26 43 -28 25 -3 37 4 69 43 38 44 40 45 97 45 l58 0 0
40 0 40 -73 0 -73 0 -37 -45z"/>
<path d="M15875 24059 c-4 -6 -5 -12 -2 -15 2 -3 7 2 10 11 7 17 1 20 -8 4z"/>
<path d="M17003 24063 c43 -2 110 -2 150 0 40 1 5 3 -78 3 -82 0 -115 -2 -72
-3z"/>
<path d="M14590 23990 c0 -21 5 -30 17 -30 9 0 26 -9 38 -20 13 -12 29 -18 38
-14 23 9 22 15 -14 57 -41 48 -79 51 -79 7z"/>
<path d="M17131 23981 c19 -22 53 -49 77 -61 43 -22 59 -51 49 -91 -4 -15 -2
-18 7 -10 10 8 18 6 31 -9 10 -11 29 -20 42 -20 l23 0 -20 20 c-13 13 -19 31
-18 49 2 22 -11 44 -52 94 l-55 66 -59 0 -58 1 33 -39z"/>
<path d="M15750 24000 c0 -5 4 -10 9 -10 6 0 13 5 16 10 3 6 -1 10 -9 10 -9 0
-16 -4 -16 -10z"/>
<path d="M15700 23970 c-19 -11 -31 -19 -27 -20 11 0 67 29 67 35 0 7 -1 7
-40 -15z"/>
<path d="M16980 23980 c8 -5 20 -10 25 -10 6 0 3 5 -5 10 -8 5 -19 10 -25 10
-5 0 -3 -5 5 -10z"/>
<path d="M18443 23972 c-6 -4 -26 -25 -43 -47 -21 -27 -42 -42 -62 -45 -17 -3
-36 -14 -42 -25 -6 -11 -21 -34 -33 -52 -34 -47 -30 -53 34 -53 55 0 56 1 35
16 -40 28 -18 103 26 92 17 -5 32 6 69 48 42 47 52 54 85 54 21 0 38 5 38 10
0 12 -89 13 -107 2z"/>
<path d="M18515 23931 c-16 -3 -37 -10 -46 -16 -29 -19 -69 -82 -69 -110 0
-27 2 -26 55 31 30 32 55 62 55 67 0 4 9 7 20 7 11 0 20 7 20 15 0 8 -1 14 -2
14 -2 -1 -16 -4 -33 -8z"/>
<path d="M14606 23905 c18 -27 34 -33 34 -12 0 17 -20 37 -37 37 -10 0 -10 -6
3 -25z"/>
<path d="M15620 23914 c0 -8 5 -12 10 -9 6 3 10 10 10 16 0 5 -4 9 -10 9 -5 0
-10 -7 -10 -16z"/>
<path d="M14822 23902 c-10 -7 -10 -15 -2 -37 13 -34 4 -83 -21 -114 -22 -27
-75 -42 -107 -30 -18 7 -22 5 -22 -10 0 -26 -35 -55 -60 -48 -19 5 -20 1 -20
-96 1 -81 3 -98 12 -82 24 44 51 60 97 59 25 -1 47 -6 49 -13 7 -22 22 -11 22
18 0 61 37 129 88 163 32 21 109 24 155 5 46 -20 89 -86 95 -147 7 -73 -5
-117 -44 -160 -61 -67 -151 -78 -219 -26 l-34 27 -20 -40 c-11 -21 -27 -41
-36 -44 -24 -10 -17 -29 25 -72 22 -22 40 -43 40 -47 0 -5 45 -8 100 -8 79 0
100 3 100 14 0 8 7 16 15 20 8 3 15 17 15 31 0 14 5 25 10 25 6 0 10 8 10 19
0 10 6 24 14 31 8 6 13 17 10 24 -3 8 2 16 10 19 9 4 16 14 16 23 0 9 16 38
35 64 19 26 35 51 35 56 0 4 7 14 15 23 64 70 67 77 51 113 -6 14 -33 53 -61
86 l-50 61 -101 0 c-77 1 -103 -2 -107 -13 -8 -20 -43 -26 -66 -9 -23 16 -28
62 -9 81 19 19 66 15 78 -8 10 -18 21 -20 113 -20 l102 0 59 -60 c40 -40 63
-57 70 -50 10 10 -12 47 -60 100 -13 14 -31 36 -42 49 -18 23 -24 24 -183 28
-90 2 -170 0 -177 -5z"/>
<path d="M18455 23800 l-70 -79 -72 -1 c-67 0 -73 -2 -73 -20 0 -11 6 -23 14
-26 8 -3 22 -21 31 -40 15 -32 19 -34 64 -34 39 0 52 -4 63 -23 9 -12 43 -51
76 -87 l61 -65 1 51 c0 36 -5 56 -17 65 -26 22 -53 90 -53 134 0 44 27 112 53
134 20 16 23 71 4 71 -7 0 -44 -36 -82 -80z"/>
<path d="M14590 23815 c0 -35 4 -54 10 -50 6 3 10 26 10 50 0 24 -4 47 -10 50
-6 4 -10 -15 -10 -50z"/>
<path d="M17362 23854 c4 -21 22 -23 26 -1 2 10 -3 17 -13 17 -10 0 -15 -6
-13 -16z"/>
<path d="M17524 23859 c-8 -14 11 -33 25 -25 6 4 11 14 11 22 0 16 -26 19 -36
3z"/>
<path d="M17690 23850 c0 -15 5 -20 18 -18 9 2 17 10 17 18 0 8 -8 16 -17 18
-13 2 -18 -3 -18 -18z"/>
<path d="M14880 23830 c0 -15 5 -20 18 -18 9 2 17 10 17 18 0 8 -8 16 -17 18
-13 2 -18 -3 -18 -18z"/>
<path d="M18527 23748 c-22 -48 -21 -93 2 -143 21 -44 27 -27 12 38 -6 23 -5
52 1 73 15 55 4 76 -15 32z"/>
<path d="M18370 23760 c-9 -6 -10 -10 -3 -10 6 0 15 5 18 10 8 12 4 12 -15 0z"/>
<path d="M17430 23711 c0 -6 -7 -8 -15 -5 -17 7 -20 -7 -6 -21 5 -6 11 -23 14
-40 l4 -30 2 33 c1 39 28 55 45 26 6 -10 14 -39 17 -64 l6 -45 1 51 c2 59 22
85 47 64 11 -9 15 -33 15 -91 0 -44 4 -79 8 -79 5 0 7 31 6 68 -4 76 10 110
40 99 15 -6 17 -19 14 -87 -2 -66 0 -80 12 -80 12 0 15 16 15 82 0 78 1 83 22
86 29 4 38 -28 30 -109 -4 -50 -3 -59 11 -59 14 0 17 13 18 83 0 45 3 91 5
102 4 19 -2 20 -153 23 -100 1 -158 -1 -158 -7z"/>
<path d="M14906 23693 c-28 -7 -73 -51 -86 -84 -17 -39 -7 -124 17 -157 27
-38 86 -65 122 -57 85 18 136 135 96 219 -27 56 -96 93 -149 79z m107 -44 c32
-24 51 -89 42 -138 -9 -50 -66 -101 -112 -101 -64 0 -123 65 -123 135 0 33 34
101 57 114 32 18 108 13 136 -10z"/>
<path d="M14893 23614 c-45 -35 -47 -92 -4 -135 36 -35 61 -37 98 -5 23 20 28
32 28 71 0 40 -4 50 -30 71 -38 30 -52 30 -92 -2z m75 -36 c28 -28 3 -84 -34
-76 -28 5 -40 33 -26 62 12 28 40 34 60 14z"/>
<path d="M17778 23575 c-3 -58 -1 -65 16 -65 12 0 16 5 12 16 -3 9 -6 38 -6
65 0 73 -18 60 -22 -16z"/>
<path d="M17930 23587 c0 -29 -5 -58 -12 -65 -9 -9 -6 -12 16 -12 22 0 27 4
22 16 -3 9 -6 38 -6 65 0 27 -4 49 -10 49 -5 0 -10 -24 -10 -53z"/>
<path d="M17857 23600 c-3 -8 -7 -32 -9 -52 -4 -34 -2 -38 20 -38 16 0 21 4
15 13 -4 6 -10 30 -14 52 -3 23 -8 34 -12 25z"/>
<path d="M15280 23580 c0 -5 5 -10 10 -10 6 0 10 5 10 10 0 6 -4 10 -10 10 -5
0 -10 -4 -10 -10z"/>
<path d="M18295 23540 l-16 -30 30 0 c23 0 40 -11 68 -42 114 -127 127 -138
149 -138 21 0 24 5 24 40 0 24 -5 40 -12 40 -6 0 -23 13 -37 29 -111 123 -119
131 -155 131 -29 0 -38 -5 -51 -30z"/>
<path d="M15160 23419 c0 -5 5 -7 10 -4 6 3 10 8 10 11 0 2 -4 4 -10 4 -5 0
-10 -5 -10 -11z"/>
<path d="M17696 23353 c-54 -4 -58 -6 -52 -26 3 -12 6 -25 6 -29 0 -5 141 -8
313 -8 l312 0 79 -90 79 -90 59 0 58 0 0 35 c0 34 -1 35 -41 35 -49 0 -74 13
-108 54 -14 17 -46 52 -70 78 l-45 48 -265 -2 c-146 -1 -292 -3 -325 -5z"/>
<path d="M14590 23327 c0 -23 29 -62 149 -195 l56 -64 87 4 c83 4 109 10 95
24 -3 3 -43 8 -89 11 -93 5 -75 -7 -197 131 -31 35 -66 75 -78 88 l-23 25 0
-24z"/>
<path d="M14700 23286 c0 -4 27 -39 60 -76 49 -56 64 -67 83 -62 21 5 20 6 -7
13 -25 7 -46 28 -118 113 -10 12 -17 17 -18 12z"/>
<path d="M14590 23218 c1 -38 2 -40 100 -148 70 -78 75 -81 109 -76 20 3 67 8
105 12 90 9 66 24 -39 24 -90 0 -71 -13 -189 124 -88 103 -86 101 -86 64z"/>
<path d="M17680 23240 c0 -5 1 -11 3 -12 1 -1 129 -4 285 -7 l283 -6 57 -60
c31 -33 89 -97 127 -142 49 -57 77 -82 93 -83 21 0 22 4 22 75 l0 75 -63 0
-63 0 -55 62 c-30 34 -64 72 -75 85 l-21 23 -297 0 c-191 0 -296 -4 -296 -10z"/>
<path d="M18000 23168 l255 -9 30 -32 c17 -18 59 -64 95 -102 69 -75 56 -54
-20 30 -25 28 -60 67 -78 88 l-32 37 -253 -2 -252 -1 255 -9z"/>
<path d="M14590 23109 c0 -23 35 -71 111 -151 25 -27 30 -28 132 -28 96 0 134
9 108 24 -5 4 -12 0 -14 -6 -4 -10 -6 -10 -6 0 -1 9 -26 12 -90 12 -82 0 -91
2 -108 23 -10 13 -44 52 -75 87 -51 56 -58 61 -58 39z"/>
<path d="M17773 23123 c-33 -3 -43 -8 -43 -22 0 -23 42 -31 167 -31 70 0 94
-3 100 -15 5 -8 27 -34 49 -57 22 -24 59 -67 83 -95 29 -35 52 -53 66 -53 30
0 47 -23 43 -56 -4 -37 -29 -51 -62 -36 -19 9 -26 19 -26 41 0 28 -26 68 -75
116 -11 11 -37 41 -59 68 l-38 47 -114 0 c-103 0 -133 -7 -105 -25 10 -5 18
-49 25 -129 3 -44 17 -54 79 -55 25 -1 40 4 43 14 8 21 70 20 78 -1 25 -64
-28 -111 -76 -67 -25 22 -36 8 -12 -18 10 -11 26 -18 35 -16 46 12 80 -63 45
-99 -29 -28 -76 -7 -76 34 0 46 -79 95 -93 58 -8 -19 8 -84 26 -104 8 -9 23
-27 33 -39 17 -21 27 -23 126 -23 l107 0 3 33 3 32 93 3 92 3 0 -106 0 -105
-95 0 -95 0 0 35 0 35 -122 0 c-111 0 -124 2 -145 22 -13 12 -23 16 -23 10 0
-7 5 -12 10 -12 6 0 10 -12 10 -27 0 -22 -2 -25 -10 -13 -8 11 -10 1 -8 -35
l3 -50 238 3 237 3 0 -106 0 -105 -253 6 -254 7 -6 -44 c-4 -29 -2 -46 6 -51
7 -4 80 -8 164 -8 l152 0 3 28 3 27 93 3 92 3 0 -106 0 -105 -90 0 c-71 0 -92
3 -96 15 -5 12 -29 15 -133 14 -69 -1 -153 -4 -186 -8 -58 -6 -60 -7 -74 -46
-8 -22 -18 -42 -22 -45 -3 -3 -9 -15 -13 -27 -6 -19 -2 -25 21 -35 15 -6 31
-11 36 -10 4 1 7 -3 7 -8 0 -15 26 -12 40 5 36 43 104 -10 83 -66 -7 -18 -8
-42 -2 -66 11 -49 3 -80 -31 -124 l-28 -36 -3 -256 c-4 -243 -3 -257 16 -279
11 -13 40 -47 63 -76 l44 -52 79 0 79 0 0 73 0 72 -18 -35 c-24 -48 -63 -66
-114 -51 -69 21 -84 113 -29 176 l31 36 0 268 0 268 33 38 c17 21 51 59 75 84
37 41 42 51 42 93 l0 48 95 0 95 0 0 -105 0 -105 -88 0 c-49 0 -93 5 -99 11
-7 7 -22 -5 -52 -39 l-41 -50 0 -260 c0 -256 0 -262 22 -282 12 -11 28 -33 34
-48 10 -22 13 1 13 145 l1 171 33 39 c17 21 41 48 52 59 30 30 147 163 189
212 l36 44 0 412 c0 400 -1 413 -20 431 -23 21 -25 52 -6 78 17 22 44 22 68 0
17 -15 18 -15 18 4 0 11 -7 26 -15 33 -20 16 -19 74 1 91 12 10 22 10 44 2 22
-8 33 -8 49 4 24 16 27 38 7 50 -7 4 -46 46 -85 92 -40 46 -77 89 -84 96 -7 7
-37 40 -67 74 l-55 61 -215 -2 c-118 -1 -234 -3 -257 -5z"/>
<path d="M14590 22932 c0 -91 3 -106 22 -133 l23 -30 135 7 c141 7 142 7 146
27 2 7 7 26 12 43 l10 31 -61 7 c-33 3 -82 6 -108 6 -51 0 -60 7 -153 115
l-25 30 -1 -103z"/>
<path d="M17720 22976 c0 -9 5 -16 10 -16 6 0 10 4 10 9 0 6 -4 13 -10 16 -5
3 -10 -1 -10 -9z"/>
<path d="M17735 22930 c3 -5 8 -10 11 -10 2 0 4 5 4 10 0 6 -5 10 -11 10 -5 0
-7 -4 -4 -10z"/>
<path d="M17742 22890 c0 -14 2 -19 5 -12 2 6 2 18 0 25 -3 6 -5 1 -5 -13z"/>
<path d="M18512 22871 c18 -20 34 -38 36 -40 1 -2 2 12 2 31 0 33 -2 36 -35
40 l-35 4 32 -35z"/>
<path d="M14961 22834 c0 -11 3 -14 6 -6 3 7 2 16 -1 19 -3 4 -6 -2 -5 -13z"/>
<path d="M17936 22813 c-12 -12 -6 -33 9 -33 8 0 15 6 15 14 0 17 -14 28 -24
19z"/>
<path d="M18180 22800 c0 -11 7 -20 15 -20 8 0 15 9 15 20 0 11 -7 20 -15 20
-8 0 -15 -9 -15 -20z"/>
<path d="M14590 22764 c0 -5 7 -17 14 -27 12 -16 28 -18 117 -16 163 4 191 16
40 18 -110 1 -138 4 -153 18 -10 9 -18 12 -18 7z"/>
<path d="M14590 22700 c0 -5 5 -10 11 -10 5 0 7 5 4 10 -3 6 -8 10 -11 10 -2
0 -4 -4 -4 -10z"/>
<path d="M17772 22675 c0 -16 2 -22 5 -12 2 9 2 23 0 30 -3 6 -5 -1 -5 -18z"/>
<path d="M17937 22693 c-13 -12 -7 -33 8 -33 8 0 15 9 15 20 0 20 -11 26 -23
13z"/>
<path d="M14590 22625 c0 -29 23 -34 46 -10 23 23 52 18 71 -11 15 -24 15 -29
2 -53 -19 -33 -53 -39 -76 -12 -36 43 -43 28 -43 -89 l0 -110 68 0 c65 0 68 1
100 37 111 128 152 183 146 197 -3 9 -2 16 4 16 6 0 7 11 3 28 l-7 27 -157 3
-157 3 0 -26z"/>
<path d="M14656 22593 c-13 -14 -5 -33 14 -33 11 0 20 6 20 14 0 15 -24 28
-34 19z"/>
<path d="M18480 22250 c0 -319 1 -350 16 -336 8 9 22 16 30 16 11 0 12 5 5 18
-5 9 -11 152 -13 316 -2 229 -6 300 -16 304 -6 2 -10 8 -7 12 3 5 1 11 -5 15
-7 4 -10 -110 -10 -345z"/>
<path d="M18428 22543 c-17 -18 -18 -54 -18 -441 l0 -420 -27 -33 c-16 -18
-39 -45 -53 -60 -54 -57 -150 -167 -184 -209 l-36 -45 0 -247 c0 -230 1 -248
18 -248 16 0 17 19 17 257 l0 258 30 31 c17 17 64 68 105 114 41 46 94 104
118 129 23 25 45 55 47 66 3 11 4 211 3 444 -3 404 -4 422 -20 404z"/>
<path d="M14890 22465 c0 -8 2 -15 4 -15 2 0 6 7 10 15 3 8 1 15 -4 15 -6 0
-10 -7 -10 -15z"/>
<path d="M14834 22408 c-81 -88 -97 -108 -86 -108 7 0 23 12 36 28 14 15 41
45 60 67 31 35 43 55 33 55 -2 0 -21 -19 -43 -42z"/>
<path d="M14941 22424 c0 -11 3 -14 6 -6 3 7 2 16 -1 19 -3 4 -6 -2 -5 -13z"/>
<path d="M17772 22415 c0 -16 2 -22 5 -12 2 9 2 23 0 30 -3 6 -5 -1 -5 -18z"/>
<path d="M14842 22335 l-60 -65 -96 0 c-96 0 -96 0 -96 -25 0 -14 9 -34 21
-46 45 -45 46 -132 3 -191 -17 -23 -24 -45 -24 -80 l0 -48 43 47 c23 26 58 65
77 87 19 22 43 48 53 58 13 13 17 35 17 86 0 61 3 70 33 103 71 79 97 113 97
126 0 7 -2 13 -4 13 -2 0 -31 -29 -64 -65z"/>
<path d="M14946 22313 c-6 -14 -5 -15 5 -6 7 7 10 15 7 18 -3 3 -9 -2 -12 -12z"/>
<path d="M17805 22320 c-7 -11 75 -20 191 -20 87 0 104 3 104 15 0 14 -20 16
-145 14 -80 0 -147 -4 -150 -9z"/>
<path d="M14868 22263 c-47 -48 -48 -50 -48 -113 0 -64 -1 -66 -48 -116 -60
-65 -165 -183 -174 -198 -4 -6 -8 -17 -8 -24 0 -8 17 5 38 29 20 23 48 54 62
69 14 15 49 55 79 91 77 90 87 99 113 99 13 0 33 3 46 6 20 6 22 11 17 33 -4
14 -9 44 -11 66 -2 22 -8 55 -12 73 l-7 33 -47 -48z"/>
<path d="M18047 22263 c-6 -4 -124 -12 -196 -13 -46 0 -82 -2 -80 -4 2 -2 77
-7 167 -10 153 -7 162 -7 162 11 0 13 -7 18 -26 18 -14 0 -26 -1 -27 -2z"/>
<path d="M14970 22145 c0 -8 5 -15 10 -15 6 0 10 7 10 15 0 8 -4 15 -10 15 -5
0 -10 -7 -10 -15z"/>
<path d="M17727 22138 c-4 -12 -4 -24 -1 -27 6 -7 24 20 24 37 0 21 -17 13
-23 -10z"/>
<path d="M14819 22007 c-25 -29 -64 -72 -85 -96 -21 -25 -63 -70 -91 -100 -39
-41 -53 -64 -53 -85 l0 -30 38 44 c20 24 48 56 62 70 14 15 47 52 73 83 l49
57 78 0 c83 0 90 4 90 55 0 36 -26 55 -73 55 -38 -1 -47 -6 -88 -53z"/>
<path d="M17901 22056 c10 -8 199 -14 199 -5 0 5 -46 9 -102 9 -56 0 -99 -2
-97 -4z"/>
<path d="M15050 21990 c0 -5 5 -10 10 -10 6 0 10 5 10 10 0 6 -4 10 -10 10 -5
0 -10 -4 -10 -10z"/>
<path d="M17663 21913 c-15 -5 -17 -23 -4 -23 5 0 11 7 15 15 3 8 4 15 3 14
-1 0 -8 -3 -14 -6z"/>
<path d="M14745 21823 c-44 -48 -97 -106 -117 -129 l-38 -41 0 -94 1 -94 49
55 c27 30 60 69 72 87 40 56 62 63 210 63 l134 0 23 31 c14 18 19 34 14 38 -6
3 -14 17 -18 31 -4 13 -14 31 -22 39 -8 8 -13 25 -10 38 4 20 0 23 -24 23 -18
0 -34 8 -41 20 -11 17 -24 20 -83 20 l-70 0 -80 -87z"/>
<path d="M18516 21903 c-12 -12 -6 -33 9 -33 8 0 15 6 15 14 0 17 -14 28 -24
19z"/>
<path d="M18480 21834 c0 -31 2 -35 15 -24 8 7 24 10 35 7 25 -7 28 21 3 29
-10 3 -26 10 -35 15 -16 8 -18 4 -18 -27z"/>
<path d="M17595 21759 c-4 -6 -5 -12 -2 -15 2 -3 7 2 10 11 7 17 1 20 -8 4z"/>
<path d="M17810 21760 c0 -5 5 -10 11 -10 5 0 7 5 4 10 -3 6 -8 10 -11 10 -2
0 -4 -4 -4 -10z"/>
<path d="M18480 21724 c0 -35 -10 -49 -86 -134 -48 -52 -103 -115 -123 -139
-20 -25 -51 -60 -68 -79 l-33 -35 0 -248 c0 -215 2 -249 15 -249 13 0 15 34
15 250 l0 249 32 38 c18 21 55 63 83 93 76 84 179 201 187 214 13 19 9 53 -7
66 -13 11 -15 7 -15 -26z"/>
<path d="M18538 21734 c-5 -4 -8 -19 -8 -32 0 -22 -67 -113 -114 -157 -6 -5
-36 -39 -66 -74 -30 -36 -70 -80 -87 -99 l-33 -35 0 -248 0 -249 100 0 c55 0
100 2 100 5 0 2 -20 27 -45 55 l-45 51 0 170 c0 140 -3 176 -16 199 -11 17
-14 37 -10 54 5 22 12 26 40 26 49 0 64 -50 26 -85 -19 -17 -20 -31 -20 -192
0 -95 3 -173 8 -173 4 0 25 -25 47 -55 37 -51 43 -54 83 -55 l42 0 0 354 c0
305 -2 355 -15 360 -21 8 -19 36 6 62 16 17 20 32 17 74 -2 28 -6 48 -10 44z
m-48 -234 c11 -11 20 -27 20 -35 0 -8 -9 -23 -20 -32 -15 -13 -20 -30 -20 -64
0 -29 -6 -51 -15 -59 -12 -10 -15 -39 -15 -145 0 -109 3 -134 15 -139 20 -7
19 -45 -2 -68 -20 -22 -37 -23 -57 -2 -22 21 -20 46 5 75 18 21 20 35 18 153
-2 111 0 130 14 141 21 15 23 83 3 99 -26 20 -29 53 -7 75 26 26 36 26 61 1z"/>
<path d="M18442 21468 c5 -34 38 -37 38 -4 0 20 -5 26 -21 26 -15 0 -20 -5
-17 -22z"/>
<path d="M18407 21014 c-12 -12 -8 -42 6 -47 21 -8 39 8 35 29 -3 19 -29 30
-41 18z"/>
<path d="M17546 21399 l-8 -220 26 -34 c17 -22 26 -46 26 -70 0 -22 8 -47 21
-63 43 -55 -16 -125 -65 -76 -20 20 -21 68 -1 84 23 19 19 80 -7 108 -22 22
-23 35 -28 200 l-6 177 -2 -181 c-2 -151 1 -184 13 -194 25 -21 18 -57 -15
-80 -16 -12 -30 -17 -30 -12 0 5 -10 12 -21 15 -18 5 -21 12 -17 41 4 39 -5
47 -22 17 -15 -28 -12 -65 7 -98 18 -33 12 -80 -12 -90 -55 -20 -92 39 -56 88
12 16 21 44 21 64 0 24 9 48 26 70 25 33 26 37 20 141 -4 59 -9 110 -11 113
-3 2 -5 -3 -5 -12 0 -9 -7 -17 -15 -17 -8 0 -15 -3 -15 -7 0 -11 -49 -62 -103
-107 -26 -21 -47 -44 -47 -52 0 -8 -4 -14 -10 -14 -6 0 -10 -27 -10 -62 0 -50
5 -67 25 -94 22 -29 25 -43 25 -113 l0 -81 55 0 c36 0 70 7 95 20 51 26 116
26 158 0 29 -18 48 -20 129 -18 l96 3 -41 45 -41 45 -1 271 0 271 -50 53 c-28
30 -48 60 -46 67 8 19 -11 16 -23 -4 -9 -16 -10 -16 -11 5 0 12 -4 22 -9 22
-4 0 -11 -99 -15 -221z"/>
<path d="M18541 21584 c0 -11 3 -14 6 -6 3 7 2 16 -1 19 -3 4 -6 -2 -5 -13z"/>
<path d="M15140 21543 l-35 -33 -141 0 -141 0 -53 -57 c-29 -32 -69 -76 -89
-97 -78 -84 -91 -107 -91 -152 0 -33 3 -42 14 -38 17 7 56 -29 56 -52 0 -29
-21 -54 -45 -54 -23 0 -25 -4 -25 -41 l0 -42 31 39 c17 21 34 41 37 44 35 26
92 104 92 125 0 14 -4 25 -8 25 -17 0 -33 50 -22 70 18 34 45 42 69 19 26 -25
27 -60 1 -84 -11 -10 -20 -30 -20 -45 0 -26 -14 -44 -132 -177 -28 -30 -48
-63 -48 -76 0 -19 6 -16 43 24 23 26 53 60 66 75 14 16 65 75 115 132 104 118
113 132 92 132 -27 0 -48 43 -37 74 8 20 17 26 40 26 18 0 34 -7 40 -17 8 -15
26 -17 152 -14 152 3 159 5 159 53 0 14 6 29 13 31 10 4 10 6 0 6 -7 1 -13 8
-13 16 0 16 -35 70 -65 101 l-20 20 -35 -33z"/>
<path d="M17762 21210 l-2 -236 56 -67 c32 -37 61 -67 66 -67 5 0 -12 22 -38
50 -78 82 -73 64 -77 321 l-2 234 -3 -235z"/>
<path d="M17450 21273 c-3 -73 -1 -129 3 -124 4 4 6 64 5 132 l-3 124 -5 -132z"/>
<path d="M18334 21365 c-4 -9 -2 -21 4 -27 15 -15 44 -1 40 19 -4 23 -36 29
-44 8z"/>
<path d="M14894 21339 c-8 -14 11 -33 25 -25 6 4 11 14 11 22 0 16 -26 19 -36
3z"/>
<path d="M14956 21305 c-5 -13 14 -15 137 -15 78 0 148 4 155 9 23 14 -25 21
-159 21 -104 0 -128 -3 -133 -15z"/>
<path d="M14747 21273 c-14 -13 -6 -33 13 -33 13 0 20 7 20 20 0 19 -20 27
-33 13z"/>
<path d="M14860 21155 c-52 -59 -106 -119 -120 -134 -73 -76 -150 -165 -150
-172 0 -5 11 -9 24 -9 16 0 35 14 59 43 19 23 45 54 58 68 13 14 51 57 84 95
33 38 82 92 109 121 l49 52 154 -1 c138 0 194 8 166 25 -4 2 -82 8 -173 12
l-166 7 -94 -107z"/>
<path d="M17732 21078 l-2 -126 46 -56 c25 -31 50 -56 57 -56 6 0 -11 23 -38
50 l-50 51 -6 132 -5 132 -2 -127z"/>
<path d="M15461 21183 c0 -7 -4 -12 -8 -11 -17 5 -73 -12 -73 -22 0 -5 5 -10
10 -10 6 0 10 -6 10 -14 0 -8 5 -16 11 -18 21 -7 23 -96 4 -138 -23 -51 -81
-83 -128 -69 -40 11 -40 11 -34 -3 2 -7 0 -23 -4 -35 -8 -23 -8 -23 86 -23 88
0 94 1 97 21 2 12 13 28 24 36 19 12 25 11 52 -12 19 -16 42 -25 64 -25 19 0
39 -5 44 -10 7 -7 50 -10 107 -8 l96 3 -50 58 c-45 50 -55 57 -88 57 -24 0
-42 -7 -54 -20 -26 -31 -54 -25 -76 18 -16 31 -5 61 27 73 21 8 31 6 53 -11
18 -13 42 -20 66 -19 28 1 31 3 13 6 -40 8 -60 32 -60 74 0 33 -3 38 -30 44
-16 4 -30 12 -30 18 0 6 -10 1 -23 -11 -26 -24 -69 -29 -85 -9 -6 6 -12 26
-15 42 -2 17 -5 24 -6 18z"/>
<path d="M14935 21137 c-22 -24 -69 -77 -105 -118 -36 -40 -87 -97 -114 -126
l-49 -53 55 0 c55 0 55 0 109 62 30 34 69 78 86 98 18 19 33 38 33 43 0 4 51
7 114 7 119 0 137 6 150 48 3 10 16 24 27 32 73 51 78 48 -101 49 l-165 2 -40
-44z"/>
<path d="M15510 21165 c0 -8 5 -15 10 -15 6 0 10 7 10 15 0 8 -4 15 -10 15 -5
0 -10 -7 -10 -15z"/>
<path d="M17065 21160 c-3 -6 1 -7 9 -4 18 7 21 14 7 14 -6 0 -13 -4 -16 -10z"/>
<path d="M17143 21145 c4 -8 2 -17 -3 -20 -6 -4 -10 -21 -10 -40 0 -26 10 -45
45 -82 49 -53 63 -39 15 16 -25 28 -30 42 -30 87 0 33 -4 54 -11 54 -6 0 -9
-7 -6 -15z"/>
<path d="M14595 21120 c-8 -14 3 -30 21 -30 8 0 14 9 14 20 0 21 -24 28 -35
10z"/>
<path d="M17000 21120 c-12 -8 -11 -10 8 -10 12 0 22 5 22 10 0 13 -11 13 -30
0z"/>
<path d="M17062 21113 c-6 -2 -10 -8 -7 -12 2 -5 -7 -14 -20 -21 -49 -26 -17
-128 48 -153 9 -3 22 -18 29 -32 6 -14 15 -25 19 -25 5 0 6 -7 3 -15 -5 -11 1
-15 20 -15 25 0 26 3 26 53 0 47 -4 56 -40 92 -23 24 -39 50 -40 65 0 33 -11
70 -19 69 -3 0 -12 -3 -19 -6z"/>
<path d="M17463 21104 c-8 -21 13 -42 28 -27 13 13 5 43 -11 43 -6 0 -13 -7
-17 -16z"/>
<path d="M15801 20988 c69 -84 136 -151 148 -147 11 4 -169 199 -183 199 -4 0
11 -24 35 -52z"/>
<path d="M16785 21010 c-3 -5 -1 -10 4 -10 6 0 11 5 11 10 0 6 -2 10 -4 10 -3
0 -8 -4 -11 -10z"/>
<path d="M15582 20984 c4 -21 22 -23 26 -1 2 10 -3 17 -13 17 -10 0 -15 -6
-13 -16z"/>
<path d="M17372 20979 c1 -13 8 -23 13 -21 15 3 12 35 -3 40 -9 3 -13 -3 -10
-19z"/>
<path d="M17564 20985 c-9 -23 14 -45 26 -25 5 8 8 19 7 24 -6 17 -27 18 -33
1z"/>
<path d="M14957 20957 c-12 -13 -41 -44 -64 -70 l-42 -47 77 0 c59 0 73 3 64
12 -20 20 -14 56 13 74 23 15 27 15 50 0 27 -18 33 -54 13 -75 -11 -10 -3 -12
37 -9 49 3 50 4 53 38 4 42 18 60 44 60 16 0 17 3 8 20 -10 18 -21 20 -121 20
-102 0 -112 -2 -132 -23z"/>
<path d="M16070 20970 c0 -5 5 -10 11 -10 5 0 7 5 4 10 -3 6 -8 10 -11 10 -2
0 -4 -4 -4 -10z"/>
<path d="M16755 20960 c-22 -10 -43 -16 -48 -13 -5 3 -15 -4 -23 -15 -10 -14
-21 -18 -36 -15 l-23 6 20 -22 19 -22 19 25 c34 48 89 27 91 -34 1 -30 1 -30
63 -30 l62 0 -2 43 c0 23 2 50 7 59 6 13 4 15 -13 11 -12 -3 -32 2 -46 11 -31
20 -41 20 -90 -4z"/>
<path d="M16120 20960 c0 -5 5 -10 10 -10 6 0 10 5 10 10 0 6 -4 10 -10 10 -5
0 -10 -4 -10 -10z"/>
<path d="M16710 20865 c0 -8 7 -15 15 -15 8 0 15 7 15 15 0 8 -7 15 -15 15 -8
0 -15 -7 -15 -15z"/>
<path d="M15467 20863 c-13 -12 -7 -23 13 -23 13 0 18 5 14 15 -7 16 -17 19
-27 8z"/>
<path d="M15850 20866 c0 -2 8 -10 18 -17 15 -13 16 -12 3 4 -13 16 -21 21
-21 13z"/>
<path d="M17453 20843 c15 -2 37 -2 50 0 12 2 0 4 -28 4 -27 0 -38 -2 -22 -4z"/>
<path d="M14550 11985 l0 -7475 635 0 635 0 0 7475 0 7475 -635 0 -635 0 0
-7475z"/>
<path d="M24920 17681 l-5205 -6 -3 -2332 -2 -2333 3317 -2 c3254 -3 3319 -3
3357 -22 57 -29 192 -168 264 -274 198 -289 320 -688 362 -1187 13 -156 13
-535 0 -706 -63 -809 -305 -1525 -556 -1644 -36 -17 -174 -19 -2814 -36 -3337
-22 -3874 -23 -3865 -8 5 7 -5 9 -26 7 l-34 -3 -3 -2312 -2 -2313 5352 -2
c2944 -2 5387 0 5428 5 278 28 528 156 686 348 125 153 187 297 249 579 562
2544 733 5189 504 7815 -93 1070 -257 2177 -485 3270 -49 233 -62 281 -96 350
-174 345 -412 600 -673 721 -127 59 -250 85 -410 88 -77 1 -2482 0 -5345 -3z"/>
<path d="M234 3699 c-49 -14 -125 -69 -161 -117 -50 -65 -66 -135 -61 -261 3
-87 8 -115 28 -156 35 -72 105 -138 173 -164 56 -20 72 -21 522 -21 l465 0 0
365 0 365 -467 -1 c-258 0 -482 -5 -499 -10z"/>
<path d="M4560 3681 c-68 -36 -75 -61 -78 -286 -2 -110 -1 -219 3 -243 9 -58
52 -106 109 -121 30 -7 200 -11 510 -11 l466 0 0 340 0 340 -488 0 c-456 0
-490 -1 -522 -19z"/>
<path d="M11470 3690 c-25 -6 -56 -18 -70 -28 -59 -44 -55 78 -55 -1802 0
-1650 1 -1726 18 -1758 12 -22 34 -41 64 -54 40 -17 62 -19 191 -16 175 4 202
14 235 86 21 46 22 60 27 687 6 633 6 641 29 697 31 80 96 148 173 183 58 27
75 30 206 33 l142 4 0 343 0 343 -162 4 c-146 3 -167 6 -205 26 -65 34 -110
78 -138 136 -33 67 -44 212 -45 581 -1 289 -11 428 -34 472 -25 49 -70 64
-209 68 -67 2 -142 0 -167 -5z"/>
<path d="M15801 3689 c-268 -34 -471 -182 -596 -434 -83 -165 -106 -267 -112
-490 -6 -209 8 -327 56 -476 46 -142 100 -230 200 -329 168 -167 382 -240 704
-240 l127 0 0 345 0 345 -77 0 c-213 1 -368 79 -403 205 -19 69 -9 179 23 242
50 98 115 127 325 146 l132 11 0 343 0 343 -157 -1 c-87 -1 -187 -5 -222 -10z"/>
<path d="M18971 3690 c-56 -12 -86 -32 -108 -73 -17 -30 -18 -127 -21 -1722
-2 -1219 0 -1705 8 -1742 13 -61 59 -108 114 -119 19 -3 95 -4 168 -2 154 4
190 17 223 83 19 38 20 67 26 675 4 349 11 651 16 670 28 103 88 176 181 222
64 32 71 33 209 37 l143 3 0 344 0 344 -145 0 c-121 0 -153 3 -199 20 -102 39
-170 129 -187 249 -6 36 -13 253 -18 481 -6 382 -9 418 -27 455 -29 61 -68 75
-216 80 -68 2 -143 0 -167 -5z"/>
<path d="M26140 3690 c-25 -6 -56 -18 -70 -28 -57 -43 -55 4 -58 -1012 -3
-999 0 -1105 44 -1313 105 -497 434 -963 822 -1165 69 -36 201 -92 217 -92 3
0 5 172 5 383 l-1 382 -49 34 c-72 48 -218 205 -284 304 -127 192 -182 358
-196 602 -5 83 -12 497 -15 920 -4 424 -11 799 -16 834 -15 121 -59 150 -236
156 -65 2 -138 0 -163 -5z"/>
<path d="M8620 3611 c-322 -130 -586 -384 -774 -743 -160 -305 -219 -580 -219
-1008 0 -242 9 -353 44 -523 98 -486 424 -951 811 -1160 67 -36 213 -97 234
-97 2 0 4 170 4 378 l-1 377 -49 34 c-28 18 -90 75 -139 126 -177 185 -290
401 -337 642 -23 116 -23 338 1 448 66 314 252 620 463 764 l62 42 0 379 c0
209 -1 380 -2 380 -2 0 -46 -18 -98 -39z"/>
<path d="M23568 2686 c-509 -1258 -944 -2346 -968 -2423 -46 -143 -38 -190 35
-219 36 -13 75 -15 226 -12 201 4 233 12 283 64 43 46 71 107 305 691 l221
552 -2 794 -3 794 -97 -241z"/>
<path d="M30688 2562 c-81 -202 -312 -776 -513 -1277 -202 -501 -382 -956
-401 -1011 -36 -107 -41 -148 -23 -187 21 -47 47 -52 263 -52 190 0 204 1 248
23 33 16 57 39 81 75 20 30 131 293 266 633 l231 580 -2 791 -3 791 -147 -366z"/>
<path d="M3903 2301 c-30 -14 -48 -32 -65 -63 -22 -41 -23 -52 -23 -278 0
-260 6 -288 66 -331 47 -34 126 -39 577 -39 l432 0 0 365 0 365 -472 0 c-443
0 -476 -2 -515 -19z"/>
<path d="M4005 705 c-57 -15 -88 -48 -104 -111 -14 -55 -14 -378 0 -442 12
-59 47 -95 104 -111 26 -7 202 -11 508 -11 l467 0 0 345 0 345 -462 -1 c-352
0 -475 -4 -513 -14z"/>
<path d="M15231 709 c-61 -12 -90 -34 -114 -87 -19 -43 -21 -65 -22 -247 0
-135 4 -212 13 -236 16 -47 57 -85 107 -98 26 -7 201 -11 503 -11 l462 0 0
345 0 345 -452 -1 c-249 -1 -473 -5 -497 -10z"/>
</g>
</svg>
